<svg xmlns="http://www.w3.org/2000/svg" version="1.1" xmlns:xlink="http://www.w3.org/1999/xlink" xmlns:svgjs="http://svgjs.dev/svgjs" width="1440" height="560" preserveAspectRatio="none" viewBox="0 0 1440 560"><g mask="url(&quot;#SvgjsMask1000&quot;)" fill="none"><rect width="1440" height="560" x="0" y="0" fill="#0e2a47"></rect><path d="M0,701.676C128.783,715.737,209.947,560.731,301.378,468.954C375.129,394.924,438.672,315.196,480.443,219.411C521.633,124.958,535.84,25.37,539.725,-77.601C544.366,-200.619,568.699,-332.302,505.238,-437.791C438.429,-548.845,316.39,-617.525,192.34,-655.049C67.704,-692.75,-68.492,-694.147,-190.326,-648.191C-307.737,-603.904,-396.462,-508.682,-468.358,-405.834C-535.053,-310.426,-562.508,-198.341,-584.678,-84.064C-607.91,35.687,-667.24,172.176,-600.275,274.136C-532.34,377.573,-362.655,335.665,-261.857,407.457C-152.708,485.197,-133.212,687.131,0,701.676" fill="#0b2239"></path><path d="M1440 1057.459C1530.751 1044.617 1589.525 960.072 1657.847 898.976 1715.564 847.364 1769.683 795.315 1808.24 728.17 1850.024 655.405 1887.3519999999999 579.233 1889.6190000000001 495.355 1892.144 401.948 1887.12 295.978 1821.728 229.231 1756.699 162.85399999999998 1650.255 170.43900000000002 1558.286 157.15499999999997 1478.61 145.64600000000002 1400.878 142.62400000000002 1321.669 157.002 1234.382 172.84699999999998 1128.333 172.973 1076.104 244.68200000000002 1023.6510000000001 316.698 1076.4850000000001 417.791 1067.186 506.397 1058.38 590.308 1003.192 668.418 1023.031 750.424 1044.349 838.544 1105.562 913.0409999999999 1178.567 966.798 1254.374 1022.619 1346.787 1070.649 1440 1057.459" fill="#113255"></path></g><defs><mask id="SvgjsMask1000"><rect width="1440" height="560" fill="#ffffff"></rect></mask></defs></svg>