<svg xmlns="http://www.w3.org/2000/svg" version="1.1" xmlns:xlink="http://www.w3.org/1999/xlink" xmlns:svgjs="http://svgjs.dev/svgjs" width="1440" height="560" preserveAspectRatio="none" viewBox="0 0 1440 560"><g mask="url(&quot;#SvgjsMask1024&quot;)" fill="none"><rect width="1440" height="560" x="0" y="0" fill="rgba(255, 224, 181, 1)"></rect><path d="M595 5L335 265" stroke-width="8" stroke="url(&quot;#SvgjsLinearGradient1025&quot;)" stroke-linecap="round" class="BottomLeft"></path><path d="M437 477L664 250" stroke-width="10" stroke="url(&quot;#SvgjsLinearGradient1026&quot;)" stroke-linecap="round" class="TopRight"></path><path d="M1290 105L906 489" stroke-width="6" stroke="url(&quot;#SvgjsLinearGradient1025&quot;)" stroke-linecap="round" class="BottomLeft"></path><path d="M246 166L51 361" stroke-width="6" stroke="url(&quot;#SvgjsLinearGradient1026&quot;)" stroke-linecap="round" class="TopRight"></path><path d="M34 335L-249 618" stroke-width="6" stroke="url(&quot;#SvgjsLinearGradient1026&quot;)" stroke-linecap="round" class="TopRight"></path><path d="M1334 2L1515 -179" stroke-width="10" stroke="url(&quot;#SvgjsLinearGradient1026&quot;)" stroke-linecap="round" class="TopRight"></path><path d="M1391 368L1718 41" stroke-width="8" stroke="url(&quot;#SvgjsLinearGradient1025&quot;)" stroke-linecap="round" class="BottomLeft"></path><path d="M1177 350L935 592" stroke-width="8" stroke="url(&quot;#SvgjsLinearGradient1026&quot;)" stroke-linecap="round" class="TopRight"></path><path d="M1318 320L1129 509" stroke-width="6" stroke="url(&quot;#SvgjsLinearGradient1025&quot;)" stroke-linecap="round" class="BottomLeft"></path><path d="M1083 335L1250 168" stroke-width="10" stroke="url(&quot;#SvgjsLinearGradient1025&quot;)" stroke-linecap="round" class="BottomLeft"></path><path d="M34 521L211 344" stroke-width="8" stroke="url(&quot;#SvgjsLinearGradient1025&quot;)" stroke-linecap="round" class="BottomLeft"></path><path d="M610 234L806 38" stroke-width="8" stroke="url(&quot;#SvgjsLinearGradient1025&quot;)" stroke-linecap="round" class="BottomLeft"></path><path d="M902 231L643 490" stroke-width="10" stroke="url(&quot;#SvgjsLinearGradient1025&quot;)" stroke-linecap="round" class="BottomLeft"></path><path d="M469 255L227 497" stroke-width="6" stroke="url(&quot;#SvgjsLinearGradient1026&quot;)" stroke-linecap="round" class="TopRight"></path><path d="M225 544L510 259" stroke-width="6" stroke="url(&quot;#SvgjsLinearGradient1025&quot;)" stroke-linecap="round" class="BottomLeft"></path><path d="M417 54L657 -186" stroke-width="6" stroke="url(&quot;#SvgjsLinearGradient1026&quot;)" stroke-linecap="round" class="TopRight"></path><path d="M576 13L403 186" stroke-width="10" stroke="url(&quot;#SvgjsLinearGradient1026&quot;)" stroke-linecap="round" class="TopRight"></path><path d="M898 484L542 840" stroke-width="10" stroke="url(&quot;#SvgjsLinearGradient1026&quot;)" stroke-linecap="round" class="TopRight"></path><path d="M387 201L57 531" stroke-width="10" stroke="url(&quot;#SvgjsLinearGradient1026&quot;)" stroke-linecap="round" class="TopRight"></path><path d="M1429 354L1287 496" stroke-width="6" stroke="url(&quot;#SvgjsLinearGradient1026&quot;)" stroke-linecap="round" class="TopRight"></path><path d="M213 216L61 368" stroke-width="8" stroke="url(&quot;#SvgjsLinearGradient1025&quot;)" stroke-linecap="round" class="BottomLeft"></path><path d="M616 495L260 851" stroke-width="6" stroke="url(&quot;#SvgjsLinearGradient1025&quot;)" stroke-linecap="round" class="BottomLeft"></path><path d="M360 144L-24 528" stroke-width="8" stroke="url(&quot;#SvgjsLinearGradient1025&quot;)" stroke-linecap="round" class="BottomLeft"></path><path d="M1144 174L1519 -201" stroke-width="10" stroke="url(&quot;#SvgjsLinearGradient1025&quot;)" stroke-linecap="round" class="BottomLeft"></path><path d="M1199 52L1507 -256" stroke-width="8" stroke="url(&quot;#SvgjsLinearGradient1026&quot;)" stroke-linecap="round" class="TopRight"></path><path d="M700 164L476 388" stroke-width="10" stroke="url(&quot;#SvgjsLinearGradient1026&quot;)" stroke-linecap="round" class="TopRight"></path><path d="M1110 508L837 781" stroke-width="10" stroke="url(&quot;#SvgjsLinearGradient1025&quot;)" stroke-linecap="round" class="BottomLeft"></path><path d="M1417 519L1130 806" stroke-width="6" stroke="url(&quot;#SvgjsLinearGradient1026&quot;)" stroke-linecap="round" class="TopRight"></path><path d="M375 459L225 609" stroke-width="8" stroke="url(&quot;#SvgjsLinearGradient1026&quot;)" stroke-linecap="round" class="TopRight"></path><path d="M997 53L779 271" stroke-width="8" stroke="url(&quot;#SvgjsLinearGradient1026&quot;)" stroke-linecap="round" class="TopRight"></path><path d="M805 55L1220 -360" stroke-width="6" stroke="url(&quot;#SvgjsLinearGradient1026&quot;)" stroke-linecap="round" class="TopRight"></path><path d="M1345 447L1605 187" stroke-width="10" stroke="url(&quot;#SvgjsLinearGradient1026&quot;)" stroke-linecap="round" class="TopRight"></path><path d="M377 385L-13 775" stroke-width="10" stroke="url(&quot;#SvgjsLinearGradient1025&quot;)" stroke-linecap="round" class="BottomLeft"></path><path d="M656 11L356 311" stroke-width="8" stroke="url(&quot;#SvgjsLinearGradient1026&quot;)" stroke-linecap="round" class="TopRight"></path><path d="M336 102L751 -313" stroke-width="8" stroke="url(&quot;#SvgjsLinearGradient1025&quot;)" stroke-linecap="round" class="BottomLeft"></path><path d="M811 102L409 504" stroke-width="8" stroke="url(&quot;#SvgjsLinearGradient1026&quot;)" stroke-linecap="round" class="TopRight"></path><path d="M1377 129L1052 454" stroke-width="8" stroke="url(&quot;#SvgjsLinearGradient1026&quot;)" stroke-linecap="round" class="TopRight"></path><path d="M1293 343L1036 600" stroke-width="8" stroke="url(&quot;#SvgjsLinearGradient1025&quot;)" stroke-linecap="round" class="BottomLeft"></path><path d="M1262 133L1612 -217" stroke-width="8" stroke="url(&quot;#SvgjsLinearGradient1025&quot;)" stroke-linecap="round" class="BottomLeft"></path></g><defs><mask id="SvgjsMask1024"><rect width="1440" height="560" fill="#ffffff"></rect></mask><linearGradient x1="100%" y1="0%" x2="0%" y2="100%" id="SvgjsLinearGradient1025"><stop stop-color="rgba(216, 174, 126, 0)" offset="0"></stop><stop stop-color="rgba(216, 174, 126, 1)" offset="1"></stop></linearGradient><linearGradient x1="0%" y1="100%" x2="100%" y2="0%" id="SvgjsLinearGradient1026"><stop stop-color="rgba(216, 174, 126, 0)" offset="0"></stop><stop stop-color="rgba(216, 174, 126, 1)" offset="1"></stop></linearGradient></defs></svg>