<svg xmlns="http://www.w3.org/2000/svg" version="1.1" xmlns:xlink="http://www.w3.org/1999/xlink" xmlns:svgjs="http://svgjs.dev/svgjs" width="1440" height="560" preserveAspectRatio="none" viewBox="0 0 1440 560"><g mask="url(&quot;#SvgjsMask1338&quot;)" fill="none"><rect width="1440" height="560" x="0" y="0" fill="rgba(255, 224, 181, 1)"></rect><use xlink:href="#SvgjsG1341" transform="translate(0, 0)" fill="rgba(216, 174, 126, 1)"></use><use xlink:href="#SvgjsG1341" transform="translate(0, 392)" fill="rgba(216, 174, 126, 1)"></use><use xlink:href="#SvgjsG1341" transform="translate(392, 0)" fill="rgba(216, 174, 126, 1)"></use><use xlink:href="#SvgjsG1341" transform="translate(392, 392)" fill="rgba(216, 174, 126, 1)"></use><use xlink:href="#SvgjsG1341" transform="translate(784, 0)" fill="rgba(216, 174, 126, 1)"></use><use xlink:href="#SvgjsG1341" transform="translate(784, 392)" fill="rgba(216, 174, 126, 1)"></use><use xlink:href="#SvgjsG1341" transform="translate(1176, 0)" fill="rgba(216, 174, 126, 1)"></use><use xlink:href="#SvgjsG1341" transform="translate(1176, 392)" fill="rgba(216, 174, 126, 1)"></use></g><defs><mask id="SvgjsMask1338"><rect width="1440" height="560" fill="#ffffff"></rect></mask><g id="SvgjsG1339"><path d="M0.672 6.194h14.656v3.614H0.672z"></path><path d="M6.194 0.672h3.614v14.656H6.194z"></path></g><g id="SvgjsG1340"><path d="M4.096 1.54l10.36 10.364L11.906 14.46 1.54 4.096 4.096 1.54z" fill-rule="evenodd"></path><path d="M11.904 1.54L14.46 4.1 4.096 14.46 1.54 11.904 11.906 1.544z" fill-rule="evenodd"></path></g><g id="SvgjsG1341"><use xlink:href="#SvgjsG1339" transform="translate(0, 0) scale(0.8)" fill="rgba(216, 174, 126, 1)"></use><use xlink:href="#SvgjsG1340" transform="translate(0, 39.2) scale(0.8)" fill="rgba(216, 174, 126, 1)"></use><use xlink:href="#SvgjsG1339" transform="translate(0, 78.4) scale(0.8)" fill="rgba(216, 174, 126, 1)"></use><use xlink:href="#SvgjsG1340" transform="translate(0, 117.60000000000001) scale(0.8)" fill="rgba(216, 174, 126, 1)"></use><use xlink:href="#SvgjsG1339" transform="translate(0, 156.8) scale(0.8)" fill="rgba(216, 174, 126, 1)"></use><use xlink:href="#SvgjsG1340" transform="translate(0, 196) scale(0.8)" fill="rgba(216, 174, 126, 1)"></use><use xlink:href="#SvgjsG1339" transform="translate(0, 235.20000000000002) scale(0.8)" fill="rgba(216, 174, 126, 1)"></use><use xlink:href="#SvgjsG1340" transform="translate(0, 274.40000000000003) scale(0.8)" fill="rgba(216, 174, 126, 1)"></use><use xlink:href="#SvgjsG1339" transform="translate(0, 313.6) scale(0.8)" fill="rgba(216, 174, 126, 1)"></use><use xlink:href="#SvgjsG1339" transform="translate(0, 352.8) scale(0.8)" fill="rgba(216, 174, 126, 1)"></use><use xlink:href="#SvgjsG1340" transform="translate(39.2, 0) scale(0.8)" fill="rgba(216, 174, 126, 1)"></use><use xlink:href="#SvgjsG1339" transform="translate(39.2, 39.2) scale(0.8)" fill="rgba(216, 174, 126, 1)"></use><use xlink:href="#SvgjsG1339" transform="translate(39.2, 78.4) scale(0.8)" fill="rgba(216, 174, 126, 1)"></use><use xlink:href="#SvgjsG1340" transform="translate(39.2, 117.60000000000001) scale(0.8)" fill="rgba(216, 174, 126, 1)"></use><use xlink:href="#SvgjsG1339" transform="translate(39.2, 156.8) scale(0.8)" fill="rgba(216, 174, 126, 1)"></use><use xlink:href="#SvgjsG1340" transform="translate(39.2, 196) scale(0.8)" fill="rgba(216, 174, 126, 1)"></use><use xlink:href="#SvgjsG1339" transform="translate(39.2, 235.20000000000002) scale(0.8)" fill="rgba(216, 174, 126, 1)"></use><use xlink:href="#SvgjsG1340" transform="translate(39.2, 274.40000000000003) scale(0.8)" fill="rgba(216, 174, 126, 1)"></use><use xlink:href="#SvgjsG1340" transform="translate(39.2, 313.6) scale(0.8)" fill="rgba(216, 174, 126, 1)"></use><use xlink:href="#SvgjsG1339" transform="translate(39.2, 352.8) scale(0.8)" fill="rgba(216, 174, 126, 1)"></use><use xlink:href="#SvgjsG1340" transform="translate(78.4, 0) scale(0.8)" fill="rgba(216, 174, 126, 1)"></use><use xlink:href="#SvgjsG1340" transform="translate(78.4, 39.2) scale(0.8)" fill="rgba(216, 174, 126, 1)"></use><use xlink:href="#SvgjsG1339" transform="translate(78.4, 78.4) scale(0.8)" fill="rgba(216, 174, 126, 1)"></use><use xlink:href="#SvgjsG1340" transform="translate(78.4, 117.60000000000001) scale(0.8)" fill="rgba(216, 174, 126, 1)"></use><use xlink:href="#SvgjsG1339" transform="translate(78.4, 156.8) scale(0.8)" fill="rgba(216, 174, 126, 1)"></use><use xlink:href="#SvgjsG1340" transform="translate(78.4, 196) scale(0.8)" fill="rgba(216, 174, 126, 1)"></use><use xlink:href="#SvgjsG1339" transform="translate(78.4, 235.20000000000002) scale(0.8)" fill="rgba(216, 174, 126, 1)"></use><use xlink:href="#SvgjsG1339" transform="translate(78.4, 274.40000000000003) scale(0.8)" fill="rgba(216, 174, 126, 1)"></use><use xlink:href="#SvgjsG1339" transform="translate(78.4, 313.6) scale(0.8)" fill="rgba(216, 174, 126, 1)"></use><use xlink:href="#SvgjsG1339" transform="translate(78.4, 352.8) scale(0.8)" fill="rgba(216, 174, 126, 1)"></use><use xlink:href="#SvgjsG1340" transform="translate(117.60000000000001, 0) scale(0.8)" fill="rgba(216, 174, 126, 1)"></use><use xlink:href="#SvgjsG1340" transform="translate(117.60000000000001, 39.2) scale(0.8)" fill="rgba(216, 174, 126, 1)"></use><use xlink:href="#SvgjsG1339" transform="translate(117.60000000000001, 78.4) scale(0.8)" fill="rgba(216, 174, 126, 1)"></use><use xlink:href="#SvgjsG1340" transform="translate(117.60000000000001, 117.60000000000001) scale(0.8)" fill="rgba(216, 174, 126, 1)"></use><use xlink:href="#SvgjsG1340" transform="translate(117.60000000000001, 156.8) scale(0.8)" fill="rgba(216, 174, 126, 1)"></use><use xlink:href="#SvgjsG1340" transform="translate(117.60000000000001, 196) scale(0.8)" fill="rgba(216, 174, 126, 1)"></use><use xlink:href="#SvgjsG1340" transform="translate(117.60000000000001, 235.20000000000002) scale(0.8)" fill="rgba(216, 174, 126, 1)"></use><use xlink:href="#SvgjsG1339" transform="translate(117.60000000000001, 274.40000000000003) scale(0.8)" fill="rgba(216, 174, 126, 1)"></use><use xlink:href="#SvgjsG1340" transform="translate(117.60000000000001, 313.6) scale(0.8)" fill="rgba(216, 174, 126, 1)"></use><use xlink:href="#SvgjsG1340" transform="translate(117.60000000000001, 352.8) scale(0.8)" fill="rgba(216, 174, 126, 1)"></use><use xlink:href="#SvgjsG1339" transform="translate(156.8, 0) scale(0.8)" fill="rgba(216, 174, 126, 1)"></use><use xlink:href="#SvgjsG1339" transform="translate(156.8, 39.2) scale(0.8)" fill="rgba(216, 174, 126, 1)"></use><use xlink:href="#SvgjsG1339" transform="translate(156.8, 78.4) scale(0.8)" fill="rgba(216, 174, 126, 1)"></use><use xlink:href="#SvgjsG1340" transform="translate(156.8, 117.60000000000001) scale(0.8)" fill="rgba(216, 174, 126, 1)"></use><use xlink:href="#SvgjsG1339" transform="translate(156.8, 156.8) scale(0.8)" fill="rgba(216, 174, 126, 1)"></use><use xlink:href="#SvgjsG1340" transform="translate(156.8, 196) scale(0.8)" fill="rgba(216, 174, 126, 1)"></use><use xlink:href="#SvgjsG1340" transform="translate(156.8, 235.20000000000002) scale(0.8)" fill="rgba(216, 174, 126, 1)"></use><use xlink:href="#SvgjsG1340" transform="translate(156.8, 274.40000000000003) scale(0.8)" fill="rgba(216, 174, 126, 1)"></use><use xlink:href="#SvgjsG1340" transform="translate(156.8, 313.6) scale(0.8)" fill="rgba(216, 174, 126, 1)"></use><use xlink:href="#SvgjsG1340" transform="translate(156.8, 352.8) scale(0.8)" fill="rgba(216, 174, 126, 1)"></use><use xlink:href="#SvgjsG1340" transform="translate(196, 0) scale(0.8)" fill="rgba(216, 174, 126, 1)"></use><use xlink:href="#SvgjsG1340" transform="translate(196, 39.2) scale(0.8)" fill="rgba(216, 174, 126, 1)"></use><use xlink:href="#SvgjsG1339" transform="translate(196, 78.4) scale(0.8)" fill="rgba(216, 174, 126, 1)"></use><use xlink:href="#SvgjsG1340" transform="translate(196, 117.60000000000001) scale(0.8)" fill="rgba(216, 174, 126, 1)"></use><use xlink:href="#SvgjsG1339" transform="translate(196, 156.8) scale(0.8)" fill="rgba(216, 174, 126, 1)"></use><use xlink:href="#SvgjsG1339" transform="translate(196, 196) scale(0.8)" fill="rgba(216, 174, 126, 1)"></use><use xlink:href="#SvgjsG1340" transform="translate(196, 235.20000000000002) scale(0.8)" fill="rgba(216, 174, 126, 1)"></use><use xlink:href="#SvgjsG1340" transform="translate(196, 274.40000000000003) scale(0.8)" fill="rgba(216, 174, 126, 1)"></use><use xlink:href="#SvgjsG1340" transform="translate(196, 313.6) scale(0.8)" fill="rgba(216, 174, 126, 1)"></use><use xlink:href="#SvgjsG1340" transform="translate(196, 352.8) scale(0.8)" fill="rgba(216, 174, 126, 1)"></use><use xlink:href="#SvgjsG1339" transform="translate(235.20000000000002, 0) scale(0.8)" fill="rgba(216, 174, 126, 1)"></use><use xlink:href="#SvgjsG1339" transform="translate(235.20000000000002, 39.2) scale(0.8)" fill="rgba(216, 174, 126, 1)"></use><use xlink:href="#SvgjsG1340" transform="translate(235.20000000000002, 78.4) scale(0.8)" fill="rgba(216, 174, 126, 1)"></use><use xlink:href="#SvgjsG1339" transform="translate(235.20000000000002, 117.60000000000001) scale(0.8)" fill="rgba(216, 174, 126, 1)"></use><use xlink:href="#SvgjsG1340" transform="translate(235.20000000000002, 156.8) scale(0.8)" fill="rgba(216, 174, 126, 1)"></use><use xlink:href="#SvgjsG1340" transform="translate(235.20000000000002, 196) scale(0.8)" fill="rgba(216, 174, 126, 1)"></use><use xlink:href="#SvgjsG1340" transform="translate(235.20000000000002, 235.20000000000002) scale(0.8)" fill="rgba(216, 174, 126, 1)"></use><use xlink:href="#SvgjsG1340" transform="translate(235.20000000000002, 274.40000000000003) scale(0.8)" fill="rgba(216, 174, 126, 1)"></use><use xlink:href="#SvgjsG1340" transform="translate(235.20000000000002, 313.6) scale(0.8)" fill="rgba(216, 174, 126, 1)"></use><use xlink:href="#SvgjsG1340" transform="translate(235.20000000000002, 352.8) scale(0.8)" fill="rgba(216, 174, 126, 1)"></use><use xlink:href="#SvgjsG1340" transform="translate(274.40000000000003, 0) scale(0.8)" fill="rgba(216, 174, 126, 1)"></use><use xlink:href="#SvgjsG1339" transform="translate(274.40000000000003, 39.2) scale(0.8)" fill="rgba(216, 174, 126, 1)"></use><use xlink:href="#SvgjsG1340" transform="translate(274.40000000000003, 78.4) scale(0.8)" fill="rgba(216, 174, 126, 1)"></use><use xlink:href="#SvgjsG1340" transform="translate(274.40000000000003, 117.60000000000001) scale(0.8)" fill="rgba(216, 174, 126, 1)"></use><use xlink:href="#SvgjsG1340" transform="translate(274.40000000000003, 156.8) scale(0.8)" fill="rgba(216, 174, 126, 1)"></use><use xlink:href="#SvgjsG1340" transform="translate(274.40000000000003, 196) scale(0.8)" fill="rgba(216, 174, 126, 1)"></use><use xlink:href="#SvgjsG1340" transform="translate(274.40000000000003, 235.20000000000002) scale(0.8)" fill="rgba(216, 174, 126, 1)"></use><use xlink:href="#SvgjsG1340" transform="translate(274.40000000000003, 274.40000000000003) scale(0.8)" fill="rgba(216, 174, 126, 1)"></use><use xlink:href="#SvgjsG1339" transform="translate(274.40000000000003, 313.6) scale(0.8)" fill="rgba(216, 174, 126, 1)"></use><use xlink:href="#SvgjsG1339" transform="translate(274.40000000000003, 352.8) scale(0.8)" fill="rgba(216, 174, 126, 1)"></use><use xlink:href="#SvgjsG1339" transform="translate(313.6, 0) scale(0.8)" fill="rgba(216, 174, 126, 1)"></use><use xlink:href="#SvgjsG1340" transform="translate(313.6, 39.2) scale(0.8)" fill="rgba(216, 174, 126, 1)"></use><use xlink:href="#SvgjsG1339" transform="translate(313.6, 78.4) scale(0.8)" fill="rgba(216, 174, 126, 1)"></use><use xlink:href="#SvgjsG1340" transform="translate(313.6, 117.60000000000001) scale(0.8)" fill="rgba(216, 174, 126, 1)"></use><use xlink:href="#SvgjsG1339" transform="translate(313.6, 156.8) scale(0.8)" fill="rgba(216, 174, 126, 1)"></use><use xlink:href="#SvgjsG1339" transform="translate(313.6, 196) scale(0.8)" fill="rgba(216, 174, 126, 1)"></use><use xlink:href="#SvgjsG1340" transform="translate(313.6, 235.20000000000002) scale(0.8)" fill="rgba(216, 174, 126, 1)"></use><use xlink:href="#SvgjsG1340" transform="translate(313.6, 274.40000000000003) scale(0.8)" fill="rgba(216, 174, 126, 1)"></use><use xlink:href="#SvgjsG1339" transform="translate(313.6, 313.6) scale(0.8)" fill="rgba(216, 174, 126, 1)"></use><use xlink:href="#SvgjsG1339" transform="translate(313.6, 352.8) scale(0.8)" fill="rgba(216, 174, 126, 1)"></use><use xlink:href="#SvgjsG1339" transform="translate(352.8, 0) scale(0.8)" fill="rgba(216, 174, 126, 1)"></use><use xlink:href="#SvgjsG1340" transform="translate(352.8, 39.2) scale(0.8)" fill="rgba(216, 174, 126, 1)"></use><use xlink:href="#SvgjsG1340" transform="translate(352.8, 78.4) scale(0.8)" fill="rgba(216, 174, 126, 1)"></use><use xlink:href="#SvgjsG1340" transform="translate(352.8, 117.60000000000001) scale(0.8)" fill="rgba(216, 174, 126, 1)"></use><use xlink:href="#SvgjsG1340" transform="translate(352.8, 156.8) scale(0.8)" fill="rgba(216, 174, 126, 1)"></use><use xlink:href="#SvgjsG1339" transform="translate(352.8, 196) scale(0.8)" fill="rgba(216, 174, 126, 1)"></use><use xlink:href="#SvgjsG1340" transform="translate(352.8, 235.20000000000002) scale(0.8)" fill="rgba(216, 174, 126, 1)"></use><use xlink:href="#SvgjsG1340" transform="translate(352.8, 274.40000000000003) scale(0.8)" fill="rgba(216, 174, 126, 1)"></use><use xlink:href="#SvgjsG1339" transform="translate(352.8, 313.6) scale(0.8)" fill="rgba(216, 174, 126, 1)"></use><use xlink:href="#SvgjsG1340" transform="translate(352.8, 352.8) scale(0.8)" fill="rgba(216, 174, 126, 1)"></use></g></defs></svg>