<svg xmlns="http://www.w3.org/2000/svg" version="1.1" xmlns:xlink="http://www.w3.org/1999/xlink" xmlns:svgjs="http://svgjs.dev/svgjs" width="1440" height="560" preserveAspectRatio="none" viewBox="0 0 1440 560"><g mask="url(&quot;#SvgjsMask1004&quot;)" fill="none"><rect width="1440" height="560" x="0" y="0" fill="rgba(90, 178, 255, 1)"></rect><path d="M0,423.097C93.999,432.85,190.223,467.935,277.626,431.994C370.904,393.637,440.946,312.104,487.498,222.633C535.517,130.342,576.802,20.322,543.013,-78.074C509.907,-174.48,389.35,-202.911,316.785,-274.496C251.835,-338.569,223.929,-440.75,139.737,-475.901C53.043,-512.096,-52.401,-506.212,-136.121,-463.586C-215.489,-423.176,-244.429,-328.789,-294.228,-254.95C-337.468,-190.837,-394.442,-134.75,-409.108,-58.821C-424.149,19.052,-404.906,97.906,-376.702,172.034C-346.99,250.128,-312.443,331.645,-242.915,377.984C-172.968,424.602,-83.61,414.422,0,423.097" fill="#1592ff"></path><path d="M1440 1119.393C1550.591 1130.258 1666 1117.124 1761.107 1059.652 1857.466 1001.423 1912.154 898.971 1967.246 800.785 2026.867 694.527 2121.937 584.586 2094.237 465.935 2066.444 346.88599999999997 1918.249 306.938 1831.777 220.52300000000002 1753.324 142.122 1710.703 27.787000000000035 1609.776-18.206000000000017 1502.674-67.01199999999994 1379.299-63.55600000000004 1264.402-38.03099999999995 1144.133-11.312999999999988 1025.872 38.164999999999964 943.528 129.805 860.472 222.23700000000002 798.706 345.348 808.606 469.219 818.038 587.238 929.238 664.606 994.183 763.598 1047.804 845.3299999999999 1080.629 939.332 1157.032 1000.307 1238.671 1065.461 1336.049 1109.181 1440 1119.393" fill="#9fd2ff"></path></g><defs><mask id="SvgjsMask1004"><rect width="1440" height="560" fill="#ffffff"></rect></mask></defs></svg>