<svg xmlns="http://www.w3.org/2000/svg" version="1.1" xmlns:xlink="http://www.w3.org/1999/xlink" xmlns:svgjs="http://svgjs.dev/svgjs" width="1440" height="560" preserveAspectRatio="none" viewBox="0 0 1440 560"><g mask="url(&quot;#SvgjsMask1001&quot;)" fill="none"><rect width="1440" height="560" x="0" y="0" fill="rgba(216, 174, 126, 1)"></rect><path d="M0,519.463C101.696,536.774,211.672,520.172,298.053,463.78C384.196,407.544,424.259,306.838,468.193,213.817C512.666,119.655,583.604,20.301,554.771,-79.764C525.967,-179.73,404.839,-214.802,325.351,-281.918C259.936,-337.151,208.525,-407.611,128.984,-439.28C44.548,-472.898,-49.868,-492.401,-136.808,-465.925C-223.417,-439.55,-278.301,-360.73,-341.58,-295.98C-409.063,-226.929,-494.644,-168.026,-519.197,-74.649C-544.756,22.551,-529.991,132.499,-476.646,217.677C-425.487,299.365,-320.709,320.755,-239.273,372.316C-158.528,423.439,-94.213,503.426,0,519.463" fill="#c88d4a"></path><path d="M1440 1189.156C1557.162 1199.185 1664.608 1126.559 1759.287 1056.821 1849.645 990.2660000000001 1922.935 903.892 1967.26 800.792 2010.935 699.203 2023.125 587.873 2007.989 478.335 1992.795 368.377 1962.788 252.95600000000002 1881.163 177.73000000000002 1802.196 104.95400000000001 1687.002 90.70600000000002 1579.839 83.75200000000001 1488.504 77.82499999999999 1406.232 120.72899999999998 1317.006 141.12099999999998 1220.6100000000001 163.151 1105.038 139.373 1034.2730000000001 208.43599999999998 963.102 277.895 965.755 391.603 958.71 490.801 952.085 584.085 961.6600000000001 675.86 994.865 763.2860000000001 1029.826 855.3340000000001 1082.863 936.942 1154.01 1005.01 1237.63 1085.011 1324.696 1179.286 1440 1189.156" fill="#e8cfb3"></path></g><defs><mask id="SvgjsMask1001"><rect width="1440" height="560" fill="#ffffff"></rect></mask></defs></svg>